<svg preserveAspectRatio="none" width="100%" height="100%" overflow="visible" style="display: block;" viewBox="0 0 28 28" fill="none" xmlns="http://www.w3.org/2000/svg">
<g id="Icon">
<path id="Vector" d="M11.2772 4.82294C11.3415 4.147 11.6554 3.5193 12.1578 3.06247C12.6601 2.60564 13.3147 2.3525 13.9936 2.3525C14.6726 2.3525 15.3272 2.60564 15.8295 3.06247C16.3318 3.5193 16.6458 4.147 16.71 4.82294C16.7487 5.25959 16.8919 5.6805 17.1277 6.05006C17.3634 6.41962 17.6847 6.72694 18.0644 6.94601C18.4441 7.16508 18.871 7.28945 19.3089 7.3086C19.7468 7.32774 20.1829 7.2411 20.5803 7.056C21.1973 6.77588 21.8964 6.73534 22.5416 6.94229C23.1869 7.14923 23.732 7.58884 24.071 8.17556C24.41 8.76229 24.5185 9.45414 24.3755 10.1165C24.2325 10.7788 23.8481 11.3642 23.2973 11.7588C22.9386 12.0105 22.6457 12.3449 22.4436 12.7337C22.2414 13.1225 22.1359 13.5543 22.1359 13.9925C22.1359 14.4307 22.2414 14.8624 22.4436 15.2512C22.6457 15.64 22.9386 15.9744 23.2973 16.2261C23.8481 16.6207 24.2325 17.2061 24.3755 17.8685C24.5185 18.5308 24.41 19.2227 24.071 19.8094C23.732 20.3961 23.1869 20.8357 22.5416 21.0427C21.8964 21.2496 21.1973 21.2091 20.5803 20.9289C20.1829 20.7438 19.7468 20.6572 19.3089 20.6763C18.871 20.6955 18.4441 20.8199 18.0644 21.0389C17.6847 21.258 17.3634 21.5653 17.1277 21.9349C16.8919 22.3044 16.7487 22.7254 16.71 23.162C16.6458 23.8379 16.3318 24.4656 15.8295 24.9225C15.3272 25.3793 14.6726 25.6324 13.9936 25.6324C13.3147 25.6324 12.6601 25.3793 12.1578 24.9225C11.6554 24.4656 11.3415 23.8379 11.2772 23.162C11.2387 22.7252 11.0954 22.3041 10.8596 21.9344C10.6238 21.5647 10.3024 21.2573 9.92251 21.0382C9.54267 20.8191 9.11562 20.6948 8.67754 20.6758C8.23945 20.6568 7.80323 20.7436 7.40582 20.9289C6.78883 21.2091 6.08969 21.2496 5.44446 21.0427C4.79924 20.8357 4.25409 20.3961 3.91512 19.8094C3.57615 19.2227 3.46761 18.5308 3.61063 17.8685C3.75364 17.2061 4.13798 16.6207 4.68884 16.2261C5.04755 15.9744 5.34037 15.64 5.54252 15.2512C5.74467 14.8624 5.85021 14.4307 5.85021 13.9925C5.85021 13.5543 5.74467 13.1225 5.54252 12.7337C5.34037 12.3449 5.04755 12.0105 4.68884 11.7588C4.13875 11.364 3.75509 10.7788 3.61242 10.117C3.46976 9.45507 3.57827 8.76378 3.91687 8.17744C4.25547 7.5911 4.79998 7.15159 5.44457 6.94433C6.08916 6.73708 6.78778 6.77688 7.40466 7.056C7.80201 7.2411 8.23811 7.32774 8.67604 7.3086C9.11398 7.28945 9.54085 7.16508 9.92054 6.94601C10.3002 6.72694 10.6215 6.41962 10.8573 6.05006C11.093 5.6805 11.2363 5.25959 11.2749 4.82294" stroke="var(--stroke-0, #38BDF8)" stroke-width="2.33218" stroke-linecap="round" stroke-linejoin="round"/>
<path id="Vector_2" d="M13.9931 17.4913C15.9251 17.4913 17.4913 15.9251 17.4913 13.9931C17.4913 12.061 15.9251 10.4948 13.9931 10.4948C12.061 10.4948 10.4948 12.061 10.4948 13.9931C10.4948 15.9251 12.061 17.4913 13.9931 17.4913Z" stroke="var(--stroke-0, #38BDF8)" stroke-width="2.33218" stroke-linecap="round" stroke-linejoin="round"/>
</g>
</svg>
