<svg preserveAspectRatio="none" width="100%" height="100%" overflow="visible" style="display: block;" viewBox="0 0 28 28" fill="none" xmlns="http://www.w3.org/2000/svg">
<g id="Icon">
<path id="Vector" d="M3.46328 15.0659C3.119 15.2727 2.83398 15.5649 2.63581 15.9143C2.43764 16.2636 2.33306 16.6582 2.33218 17.0599V20.838C2.33306 21.2396 2.43764 21.6342 2.63581 21.9836C2.83398 22.3329 3.119 22.6252 3.46328 22.832L6.96155 24.931C7.32427 25.1489 7.73946 25.264 8.16262 25.264C8.58577 25.264 9.00096 25.1489 9.36369 24.931L13.9931 22.1557V15.7422L8.16262 12.2439L3.46328 15.0659Z" stroke="var(--stroke-0, #38BDF8)" stroke-width="2.33218" stroke-linecap="round" stroke-linejoin="round"/>
<path id="Vector_2" d="M8.16263 19.2405L2.63537 15.9171" stroke="var(--stroke-0, #38BDF8)" stroke-width="2.33218" stroke-linecap="round" stroke-linejoin="round"/>
<path id="Vector_3" d="M8.16262 19.2405L13.9931 15.7422" stroke="var(--stroke-0, #38BDF8)" stroke-width="2.33218" stroke-linecap="round" stroke-linejoin="round"/>
<path id="Vector_4" d="M8.16262 19.2405V25.2691" stroke="var(--stroke-0, #38BDF8)" stroke-width="2.33218" stroke-linecap="round" stroke-linejoin="round"/>
<path id="Vector_5" d="M13.9931 15.7422V22.1557L18.6224 24.931C18.9852 25.1489 19.4003 25.264 19.8235 25.264C20.2467 25.264 20.6618 25.1489 21.0246 24.931L24.5228 22.832C24.8671 22.6252 25.1521 22.3329 25.3503 21.9836C25.5485 21.6342 25.6531 21.2396 25.6539 20.838V17.0599C25.6531 16.6582 25.5485 16.2636 25.3503 15.9143C25.1521 15.5649 24.8671 15.2727 24.5228 15.0659L19.8235 12.2439L13.9931 15.7422Z" stroke="var(--stroke-0, #38BDF8)" stroke-width="2.33218" stroke-linecap="round" stroke-linejoin="round"/>
<path id="Vector_6" d="M19.8235 19.2405L13.9931 15.7422" stroke="var(--stroke-0, #38BDF8)" stroke-width="2.33218" stroke-linecap="round" stroke-linejoin="round"/>
<path id="Vector_7" d="M19.8235 19.2405L25.3508 15.9171" stroke="var(--stroke-0, #38BDF8)" stroke-width="2.33218" stroke-linecap="round" stroke-linejoin="round"/>
<path id="Vector_8" d="M19.8235 19.2405V25.2691" stroke="var(--stroke-0, #38BDF8)" stroke-width="2.33218" stroke-linecap="round" stroke-linejoin="round"/>
<path id="Vector_9" d="M9.29372 5.15407C8.94944 5.36092 8.66442 5.65316 8.46625 6.00251C8.26808 6.35185 8.1635 6.74645 8.16262 7.14809V12.2439L13.9931 15.7422L19.8235 12.2439V7.14809C19.8226 6.74645 19.718 6.35185 19.5199 6.00251C19.3217 5.65316 19.0367 5.36092 18.6924 5.15407L15.1941 3.05512C14.8314 2.83719 14.4162 2.72206 13.9931 2.72206C13.5699 2.72206 13.1547 2.83719 12.792 3.05512L9.29372 5.15407Z" stroke="var(--stroke-0, #38BDF8)" stroke-width="2.33218" stroke-linecap="round" stroke-linejoin="round"/>
<path id="Vector_10" d="M13.9931 9.32873L8.46581 6.00538" stroke="var(--stroke-0, #38BDF8)" stroke-width="2.33218" stroke-linecap="round" stroke-linejoin="round"/>
<path id="Vector_11" d="M13.9931 9.32873L19.5203 6.00538" stroke="var(--stroke-0, #38BDF8)" stroke-width="2.33218" stroke-linecap="round" stroke-linejoin="round"/>
<path id="Vector_12" d="M13.9931 15.7422V9.3287" stroke="var(--stroke-0, #38BDF8)" stroke-width="2.33218" stroke-linecap="round" stroke-linejoin="round"/>
</g>
</svg>
