<svg preserveAspectRatio="none" width="100%" height="100%" overflow="visible" style="display: block;" viewBox="0 0 20 20" fill="none" xmlns="http://www.w3.org/2000/svg">
<g id="Icon">
<path id="Vector" d="M17.85 9.10166C17.9992 9.03585 18.1258 8.92772 18.2141 8.79066C18.3024 8.65361 18.3486 8.49365 18.3469 8.33061C18.3452 8.16756 18.2958 8.00859 18.2046 7.8734C18.1135 7.7382 17.9847 7.63271 17.8341 7.56999L10.6917 4.31666C10.4745 4.21762 10.2386 4.16636 9.99998 4.16636C9.76133 4.16636 9.52545 4.21762 9.30832 4.31666L2.16665 7.56666C2.01829 7.63164 1.89208 7.73844 1.80346 7.874C1.71483 8.00957 1.66763 8.16803 1.66763 8.32999C1.66763 8.49196 1.71483 8.65041 1.80346 8.78598C1.89208 8.92155 2.01829 9.02835 2.16665 9.09333L9.30832 12.35C9.52545 12.449 9.76133 12.5003 9.99998 12.5003C10.2386 12.5003 10.4745 12.449 10.6917 12.35L17.85 9.10166Z" stroke="var(--stroke-0, #38BDF8)" stroke-width="1.66667" stroke-linecap="round" stroke-linejoin="round"/>
<path id="Vector_2" d="M18.3333 8.33333V13.3333" stroke="var(--stroke-0, #38BDF8)" stroke-width="1.66667" stroke-linecap="round" stroke-linejoin="round"/>
<path id="Vector_3" d="M5 10.4167V13.3333C5 13.9964 5.52678 14.6323 6.46447 15.1011C7.40215 15.5699 8.67392 15.8333 10 15.8333C11.3261 15.8333 12.5979 15.5699 13.5355 15.1011C14.4732 14.6323 15 13.9964 15 13.3333V10.4167" stroke="var(--stroke-0, #38BDF8)" stroke-width="1.66667" stroke-linecap="round" stroke-linejoin="round"/>
</g>
</svg>
