<svg preserveAspectRatio="none" width="100%" height="100%" overflow="visible" style="display: block;" viewBox="0 0 28 28" fill="none" xmlns="http://www.w3.org/2000/svg">
<g id="Icon">
<path id="Vector" d="M18.9373 9.04885L16.8337 15.3586C16.7192 15.7021 16.5263 16.0142 16.2702 16.2702C16.0142 16.5263 15.7021 16.7192 15.3586 16.8337L9.04885 18.9373L11.1525 12.6276C11.267 12.2841 11.4599 11.9719 11.7159 11.7159C11.9719 11.4599 12.2841 11.267 12.6276 11.1525L18.9373 9.04885Z" stroke="var(--stroke-0, #38BDF8)" stroke-width="2.33218" stroke-linecap="round" stroke-linejoin="round"/>
<path id="Vector_2" d="M13.9931 25.6539C20.4332 25.6539 25.6539 20.4332 25.6539 13.9931C25.6539 7.55293 20.4332 2.33218 13.9931 2.33218C7.55293 2.33218 2.33218 7.55293 2.33218 13.9931C2.33218 20.4332 7.55293 25.6539 13.9931 25.6539Z" stroke="var(--stroke-0, #38BDF8)" stroke-width="2.33218" stroke-linecap="round" stroke-linejoin="round"/>
</g>
</svg>
