<svg preserveAspectRatio="none" width="100%" height="100%" overflow="visible" style="display: block;" viewBox="0 0 20 20" fill="none" xmlns="http://www.w3.org/2000/svg">
<g id="Icon" clip-path="url(#clip0_60_216)">
<path id="Vector" d="M12.25 5.25002C12.0973 5.4058 12.0118 5.61523 12.0118 5.83336C12.0118 6.05149 12.0973 6.26092 12.25 6.41669L13.5833 7.75002C13.7391 7.90271 13.9485 7.98824 14.1666 7.98824C14.3848 7.98824 14.5942 7.90271 14.75 7.75002L17.3383 5.16252C17.605 4.89419 18.0575 4.97919 18.1575 5.34419C18.4093 6.25992 18.395 7.22842 18.1165 8.13635C17.8379 9.04429 17.3065 9.85411 16.5845 10.4711C15.8624 11.088 14.9796 11.4866 14.0394 11.6201C13.0991 11.7536 12.1402 11.6166 11.275 11.225L4.68332 17.8167C4.35179 18.1481 3.9022 18.3342 3.43344 18.3342C2.96467 18.3341 2.51514 18.1478 2.18373 17.8163C1.85232 17.4848 1.66618 17.0352 1.66626 16.5664C1.66634 16.0976 1.85263 15.6481 2.18415 15.3167L8.77582 8.72502C8.38427 7.85978 8.24724 6.90093 8.38076 5.96065C8.51428 5.02037 8.91284 4.13757 9.52978 3.41554C10.1467 2.69351 10.9566 2.16212 11.8645 1.88355C12.7724 1.60498 13.7409 1.59075 14.6566 1.84252C15.0216 1.94252 15.1066 2.39419 14.8391 2.66252L12.25 5.25002Z" stroke="var(--stroke-0, #38BDF8)" stroke-width="1.66667" stroke-linecap="round" stroke-linejoin="round"/>
</g>
<defs>
<clipPath id="clip0_60_216">
<rect width="20" height="20" fill="white"/>
</clipPath>
</defs>
</svg>
