<svg preserveAspectRatio="none" width="100%" height="100%" overflow="visible" style="display: block;" viewBox="0 0 32 32" fill="none" xmlns="http://www.w3.org/2000/svg">
<g id="Icon">
<path id="Vector" d="M21.3307 27.9965V25.3301C21.3307 23.9158 20.7688 22.5595 19.7688 21.5594C18.7687 20.5593 17.4123 19.9975 15.998 19.9975H7.999C6.58468 19.9975 5.2283 20.5593 4.22823 21.5594C3.22816 22.5595 2.66633 23.9158 2.66633 25.3301V27.9965" stroke="var(--stroke-0, #00D492)" stroke-width="2.66633" stroke-linecap="round" stroke-linejoin="round"/>
<path id="Vector_2" d="M21.3307 4.17005C22.4742 4.4665 23.4869 5.13428 24.2099 6.06856C24.9328 7.00284 25.3251 8.15073 25.3251 9.33207C25.3251 10.5134 24.9328 11.6613 24.2099 12.5956C23.4869 13.5299 22.4742 14.1976 21.3307 14.4941" stroke="var(--stroke-0, #00D492)" stroke-width="2.66633" stroke-linecap="round" stroke-linejoin="round"/>
<path id="Vector_3" d="M29.3296 27.9963V25.33C29.3288 24.1484 28.9355 23.0006 28.2116 22.0668C27.4877 21.133 26.4742 20.466 25.3302 20.1706" stroke="var(--stroke-0, #00D492)" stroke-width="2.66633" stroke-linecap="round" stroke-linejoin="round"/>
<path id="Vector_4" d="M11.9985 14.6648C14.9436 14.6648 17.3312 12.2773 17.3312 9.33216C17.3312 6.38701 14.9436 3.9995 11.9985 3.9995C9.05334 3.9995 6.66583 6.38701 6.66583 9.33216C6.66583 12.2773 9.05334 14.6648 11.9985 14.6648Z" stroke="var(--stroke-0, #00D492)" stroke-width="2.66633" stroke-linecap="round" stroke-linejoin="round"/>
</g>
</svg>
