<svg preserveAspectRatio="none" width="100%" height="100%" overflow="visible" style="display: block;" viewBox="0 0 32 32" fill="none" xmlns="http://www.w3.org/2000/svg">
<g id="Icon">
<path id="Vector" d="M15.998 29.3297C23.3609 29.3297 29.3297 23.3609 29.3297 15.998C29.3297 8.63512 23.3609 2.66633 15.998 2.66633C8.63512 2.66633 2.66633 8.63512 2.66633 15.998C2.66633 23.3609 8.63512 29.3297 15.998 29.3297Z" stroke="var(--stroke-0, #00D492)" stroke-width="2.66633" stroke-linecap="round" stroke-linejoin="round"/>
<path id="Vector_2" d="M15.998 23.997C20.4157 23.997 23.997 20.4157 23.997 15.998C23.997 11.5803 20.4157 7.99899 15.998 7.99899C11.5803 7.99899 7.99899 11.5803 7.99899 15.998C7.99899 20.4157 11.5803 23.997 15.998 23.997Z" stroke="var(--stroke-0, #00D492)" stroke-width="2.66633" stroke-linecap="round" stroke-linejoin="round"/>
<path id="Vector_3" d="M15.998 18.6643C17.4706 18.6643 18.6643 17.4706 18.6643 15.998C18.6643 14.5254 17.4706 13.3317 15.998 13.3317C14.5254 13.3317 13.3317 14.5254 13.3317 15.998C13.3317 17.4706 14.5254 18.6643 15.998 18.6643Z" stroke="var(--stroke-0, #00D492)" stroke-width="2.66633" stroke-linecap="round" stroke-linejoin="round"/>
</g>
</svg>
