<svg preserveAspectRatio="none" width="100%" height="100%" overflow="visible" style="display: block;" viewBox="0 0 32 32" fill="none" xmlns="http://www.w3.org/2000/svg">
<g id="Icon">
<path id="Vector" d="M28.9698 23.997L18.3044 5.33264C18.0719 4.92229 17.7346 4.58098 17.3271 4.34352C16.9196 4.10606 16.4564 3.98095 15.9847 3.98095C15.5131 3.98095 15.0499 4.10606 14.6423 4.34352C14.2348 4.58098 13.8976 4.92229 13.665 5.33264L2.99969 23.997C2.76463 24.4041 2.64137 24.8661 2.64242 25.3361C2.64346 25.8062 2.76876 26.2677 3.00562 26.6737C3.24248 27.0798 3.58248 27.416 3.99116 27.6483C4.39984 27.8806 4.86267 28.0007 5.33273 27.9965H26.6634C27.1312 27.996 27.5906 27.8724 27.9956 27.6382C28.4005 27.404 28.7367 27.0674 28.9704 26.6621C29.2041 26.2569 29.3271 25.7972 29.327 25.3294C29.3269 24.8616 29.2037 24.4021 28.9698 23.997Z" stroke="var(--stroke-0, #FF6467)" stroke-width="2.66633" stroke-linecap="round" stroke-linejoin="round"/>
<path id="Vector_2" d="M15.998 11.9985V17.3312" stroke="var(--stroke-0, #FF6467)" stroke-width="2.66633" stroke-linecap="round" stroke-linejoin="round"/>
<path id="Vector_3" d="M15.998 22.6638H16.0113" stroke="var(--stroke-0, #FF6467)" stroke-width="2.66633" stroke-linecap="round" stroke-linejoin="round"/>
</g>
</svg>
