<svg preserveAspectRatio="none" width="100%" height="100%" overflow="visible" style="display: block;" viewBox="0 0 16 25" fill="none" xmlns="http://www.w3.org/2000/svg">
<path id="Vector" d="M14.8838 8.81836H9.30091L11.1193 1.23975C11.1547 1.09212 11.1564 0.93832 11.1243 0.789933C11.0923 0.641545 11.0273 0.502436 10.9343 0.383082C10.8413 0.263728 10.7227 0.16724 10.5874 0.100884C10.4521 0.0345283 10.3037 3.45514e-05 10.1533 4.8635e-07H3.97424C3.75122 -0.000221134 3.5346 0.0753044 3.35921 0.214434C3.18382 0.353564 3.05986 0.548214 3.00725 0.76709L0.0279511 13.1885C-0.00749565 13.3362 -0.00925129 13.4901 0.022817 13.6386C0.0548853 13.7871 0.119939 13.9263 0.213068 14.0457C0.306197 14.1651 0.424967 14.2616 0.560413 14.3278C0.695859 14.3941 0.844441 14.4284 0.994942 14.4282H6.36416L4.16135 23.6079C4.12088 23.7736 4.11831 23.9464 4.15384 24.1132C4.18938 24.28 4.26208 24.4364 4.36643 24.5706C4.47078 24.7048 4.60404 24.8132 4.75608 24.8876C4.90812 24.962 5.07495 25.0004 5.2439 25H5.944C6.12994 25 6.31293 24.953 6.47632 24.8634C6.63972 24.7738 6.77833 24.6443 6.87956 24.4868L15.8189 10.5557C15.9287 10.3859 15.991 10.1894 15.9991 9.98678C16.0072 9.78421 15.9609 9.58319 15.865 9.40506C15.7691 9.22694 15.6273 9.07834 15.4545 8.97505C15.2818 8.87175 15.0846 8.81761 14.8838 8.81836Z" fill="var(--fill-0, #D85B53)"/>
</svg>
